<svg width="65" height="80" viewBox="0 0 65 80" fill="none" xmlns="http://www.w3.org/2000/svg">
<path d="M44.4015 75.4036H12.0803C7.63613 75.4036 4 71.8727 4 67.5573V12.6335C4 8.31805 7.63613 4.78723 12.0803 4.78723H44.4015C53.2898 4.78723 60.5621 11.8489 60.5621 20.4797V59.711C60.5621 68.3419 53.2898 75.4036 44.4015 75.4036Z" stroke="#95A9D8" stroke-width="8" stroke-miterlimit="10" stroke-linecap="round" stroke-linejoin="round"/>
<path d="M32.281 40.0955C38.975 40.0955 44.4015 34.8261 44.4015 28.3259C44.4015 21.8258 38.975 16.5564 32.281 16.5564C25.5871 16.5564 20.1606 21.8258 20.1606 28.3259C20.1606 34.8261 25.5871 40.0955 32.281 40.0955Z" stroke="#95A9D8" stroke-width="8" stroke-miterlimit="10" stroke-linecap="round" stroke-linejoin="round"/>
<path d="M20.1606 59.7109H44.4015" stroke="#95A9D8" stroke-width="8" stroke-miterlimit="10" stroke-linecap="round" stroke-linejoin="round"/>
</svg>
