<svg width="82" height="77" viewBox="0 0 82 77" fill="none" xmlns="http://www.w3.org/2000/svg">
<path d="M20.2589 60.389C11.0116 58.589 4 50.4887 4 40.7884C4 30.9881 11.1133 22.7878 20.6653 21.1878C22.2912 11.7875 30.6239 4.78723 40.5824 4.78723C51.7604 4.78723 60.906 13.7875 60.906 24.7879C60.906 26.1879 60.8044 27.488 60.4995 28.788" stroke="#8DE091" stroke-width="8" stroke-miterlimit="10" stroke-linecap="round" stroke-linejoin="round"/>
<path d="M60.9061 60.7891C69.8485 60.7891 77.165 53.5888 77.165 44.7886C77.165 35.9883 69.8485 28.7881 60.9061 28.7881C60.8045 28.7881 60.6013 28.7881 60.4996 28.7881" stroke="#8DE091" stroke-width="8" stroke-miterlimit="10" stroke-linecap="round" stroke-linejoin="round"/>
<path d="M40.5824 72.7895V36.7883" stroke="#8DE091" stroke-width="8" stroke-miterlimit="10" stroke-linecap="round" stroke-linejoin="round"/>
<path d="M32.4529 44.7887L37.737 38.2884C39.3629 36.2883 41.9034 36.2883 43.5293 38.2884L48.7118 44.7887" stroke="#8DE091" stroke-width="8" stroke-miterlimit="10" stroke-linecap="round" stroke-linejoin="round"/>
</svg>
