<svg width="35" height="61" viewBox="0 0 35 61" fill="none" xmlns="http://www.w3.org/2000/svg">
<g opacity="0.6" clip-path="url(#clip0_1821_37)">
<path d="M32.8533 0.309082C34.3719 1.00299 34.9433 2.19886 34.8982 3.82289C34.838 6.34752 34.8831 8.87214 34.8831 11.3968C34.8831 13.5523 33.6803 14.7186 31.47 14.7334C29.7108 14.7482 27.9516 14.7334 26.2074 14.7777C24.8392 14.8072 24.5986 15.0287 24.5685 16.3722C24.5234 17.76 24.5535 19.1478 24.5535 20.5947C24.7941 20.6094 25.0046 20.6242 25.2151 20.6242C27.2148 20.6242 29.2146 20.6242 31.1993 20.6242C33.3344 20.639 34.5223 21.8201 34.5373 23.9166C34.5373 26.7955 34.5373 29.6745 34.5373 32.5682C34.5373 34.6204 33.3044 35.8163 31.2144 35.831C29.0191 35.831 26.8239 35.831 24.5234 35.831C24.5234 36.1115 24.5234 36.3478 24.5234 36.5987C24.5234 43.464 24.5385 50.3144 24.5084 57.1796C24.5084 57.8588 24.328 58.5969 24.0122 59.1875C23.5311 60.1029 22.6289 60.531 21.5764 60.5458C18.2685 60.5605 14.9456 60.5753 11.6377 60.5458C10.0439 60.531 8.87113 59.3647 8.75084 57.7997C8.7358 57.5339 8.72077 57.2534 8.72077 56.9729C8.72077 50.1963 8.72077 43.4049 8.72077 36.6283C8.72077 36.3773 8.72077 36.1263 8.72077 35.831C6.9315 35.831 5.21742 35.831 3.50333 35.831C3.14247 35.831 2.78161 35.8163 2.43579 35.7572C1.06753 35.521 0.0450915 34.4284 0.0300556 33.0702C-1.60417e-05 29.8516 -0.0150519 26.6331 0.0300556 23.4293C0.0450915 21.9087 1.26299 20.7276 2.82672 20.6685C4.52577 20.6242 6.22482 20.6537 7.92387 20.639C8.16444 20.639 8.40502 20.639 8.70573 20.639C8.72077 20.388 8.7358 20.1813 8.7358 19.9746C8.75084 18.2177 8.70573 16.446 8.79595 14.6891C8.99141 11.0424 10.1191 7.73532 12.6301 4.97447C14.9757 2.39079 17.9528 0.988221 21.396 0.441957C21.5463 0.412429 21.6967 0.368138 21.8471 0.323846C25.5158 0.309082 29.1845 0.309082 32.8533 0.309082ZM3.62362 32.2877C3.9093 32.2877 4.1198 32.2877 4.34534 32.2877C6.34511 32.2877 8.34487 32.2729 10.3296 32.3024C11.4122 32.3172 12.164 32.9964 12.2993 34.0594C12.3294 34.3103 12.3294 34.5613 12.3294 34.8271C12.3294 41.958 12.3294 49.1038 12.3294 56.2347C12.3294 56.4857 12.3294 56.7219 12.3294 56.9729C15.2463 56.9729 18.058 56.9729 20.9148 56.9729C20.9148 56.6776 20.9148 56.4119 20.9148 56.1609C20.9148 48.9857 20.9148 41.8104 20.9148 34.6351C20.9148 33.0111 21.6516 32.3024 23.2905 32.3024C25.606 32.3024 27.9215 32.3024 30.2371 32.3024C30.4476 32.3024 30.6581 32.3024 30.8836 32.3024C30.8836 29.5564 30.8836 26.8841 30.8836 24.1823C30.6129 24.1823 30.4024 24.1823 30.1769 24.1823C27.8464 24.1823 25.5008 24.1823 23.1702 24.1823C21.832 24.1823 20.9599 23.4884 20.9449 22.2335C20.9148 20.0336 20.9148 17.8338 21.0201 15.6488C21.1103 13.818 21.9824 12.3712 23.8167 11.692C24.4934 11.4411 25.2452 11.2934 25.9669 11.2639C27.5156 11.1901 29.0793 11.2196 30.643 11.2048C30.8535 11.2048 31.064 11.1753 31.2595 11.1753C31.2595 8.66545 31.2595 6.2294 31.2595 3.67525C28.2674 3.73431 25.3053 3.70478 22.3583 3.89671C20.0728 4.04435 17.9828 4.93018 16.2237 6.4361C13.6525 8.65068 12.5549 11.5592 12.3895 14.822C12.2692 17.1547 12.3444 19.4874 12.3294 21.8201C12.3143 23.4146 11.5625 24.1675 9.93867 24.1675C8.04416 24.1675 6.14964 24.1675 4.25513 24.1675C4.04462 24.1675 3.83412 24.1823 3.62362 24.1971C3.62362 26.9136 3.62362 29.5564 3.62362 32.2877Z" fill="black"/>
</g>
<defs>
<clipPath id="clip0_1821_37">
<rect width="34.9132" height="60.2515" fill="white" transform="translate(0 0.309082)"/>
</clipPath>
</defs>
</svg>
