<svg width="53" height="53" viewBox="0 0 53 53" fill="none" xmlns="http://www.w3.org/2000/svg">
<g opacity="0.6">
<path d="M40.373 8.29541C38.5835 8.29541 37.1284 9.75044 37.1284 11.54C37.1284 13.3295 38.5835 14.7845 40.373 14.7845C42.1625 14.7845 43.6175 13.3295 43.6175 11.54C43.6175 9.75044 42.1625 8.29541 40.373 8.29541Z" fill="#141614"/>
<path d="M38.9347 53H14.0653C6.30514 53 0 46.6949 0 38.9347V14.0653C0 6.30514 6.30514 0 14.0653 0H38.9347C46.6949 0 53 6.30514 53 14.0653V38.9347C53 46.6949 46.6949 53 38.9347 53ZM14.0653 4.18113C8.61313 4.18113 4.18113 8.61313 4.18113 14.0653V38.9347C4.18113 44.3869 8.61313 48.8189 14.0653 48.8189H38.9347C44.3869 48.8189 48.8189 44.3869 48.8189 38.9347V14.0653C48.8189 8.61313 44.3869 4.18113 38.9347 4.18113H14.0653Z" fill="#020203"/>
<path d="M26.7425 40.4734C19.2332 40.4734 13.1121 34.3689 13.1121 26.8429C13.1121 19.3169 19.2165 13.2124 26.7425 13.2124C34.2686 13.2124 40.373 19.3169 40.373 26.8429C40.373 34.3689 34.2519 40.4734 26.7425 40.4734ZM26.7425 17.4103C21.5412 17.4103 17.2932 21.6416 17.2932 26.8596C17.2932 32.0777 21.5245 36.309 26.7425 36.309C31.9606 36.309 36.1919 32.0777 36.1919 26.8596C36.1919 21.6416 31.9439 17.4103 26.7425 17.4103Z" fill="#020203"/>
</g>
</svg>
