<svg width="181" height="50" viewBox="0 0 181 50" fill="none" xmlns="http://www.w3.org/2000/svg">
<path d="M60.9572 26.1797C60.9572 23.3486 62.1357 20.9893 64.4143 19.0233C66.6929 17.0572 69.6786 16.1135 73.2929 16.1135V19.4165C71.1714 19.4165 69.2857 19.8883 67.7929 20.7534C66.3 21.6184 65.2786 22.8767 64.8072 24.3709H73.2929L72.7429 27.4379H64.5714C64.8072 28.6175 65.4357 29.6399 66.3786 30.4263C67.3214 31.2127 68.5786 31.6059 70.15 31.6059C71.4072 31.6059 72.4286 31.4486 73.2929 31.2127V34.1225C72.35 34.5943 71.25 34.9089 69.8357 34.9089C67.0857 34.9089 64.8857 34.0438 63.3143 32.3923C61.7429 30.7409 60.9572 28.6175 60.9572 26.1797Z" fill="black"/>
<path d="M79.3429 15.0125V11.7095H94.1929L93.8786 15.0125V30.8981H97.1L95.2143 38.9982H91.6L92.7 34.1224H78.5572V38.9982H74.9429V30.8981H77.2215L83.9786 15.0125H79.3429V15.0125ZM87.6714 15.0125L80.6786 30.8981H90.1857V15.0125H87.6714Z" fill="black"/>
<path d="M99.7714 34.1224V16.8212H103.307V23.6631H110.693V16.8212L114.229 16.2708V34.1224H110.693V26.7301H103.307V34.1224H99.7714Z" fill="black"/>
<path d="M119.65 34.1224V19.8883H117.136V17.1358L119.65 16.8213L123.186 16.1921V34.1224H119.65ZM119.807 14.3834L120.279 9.58624L124.05 10.0581L123.264 13.9115L119.807 14.3834Z" fill="black"/>
<path d="M127.743 34.1224V16.8212H138.35L141.886 16.2708V34.1224H138.35V19.8883H131.357V34.1224C131.279 34.1224 127.743 34.1224 127.743 34.1224Z" fill="black"/>
<path d="M146.443 39.1555V16.664H147.307L148.8 17.4504C150.136 16.5854 151.55 16.1921 153.121 16.1921C155.557 16.1921 157.521 16.8999 159.014 18.4727C160.507 19.9669 161.214 22.0116 161.214 24.6068C161.214 27.5165 160.114 29.9544 157.993 31.9205C155.871 33.8865 153.121 34.9088 149.9 34.9088V39.2341L146.443 39.1555ZM152.964 19.3378C151.943 19.3378 151 19.6524 149.979 20.3601V31.5273C152.414 31.5273 154.3 30.8195 155.714 29.5612C157.129 28.2243 157.836 26.5728 157.836 24.5282C157.836 22.8767 157.364 21.6184 156.421 20.6747C155.479 19.8097 154.3 19.3378 152.964 19.3378Z" fill="black"/>
<path d="M163.729 26.101C163.729 23.2699 164.514 20.832 166.086 18.9446C167.657 17.0572 169.779 16.1135 172.45 16.1135C175.043 16.1135 177.086 16.9786 178.579 18.7087C180.071 20.4388 180.779 22.4835 180.779 24.8427C180.779 27.6738 179.993 30.1117 178.421 31.9991C176.85 33.8865 174.729 34.8302 172.057 34.8302C169.464 34.8302 167.421 33.9652 165.929 32.2351C164.436 30.5836 163.729 28.4603 163.729 26.101ZM177.243 25.1573C177.243 23.5845 176.85 22.1689 175.986 21.0679C175.121 19.967 173.943 19.4165 172.45 19.4165C170.721 19.4165 169.464 19.967 168.6 21.1466C167.736 22.3262 167.343 23.8204 167.343 25.8651C167.343 27.4379 167.736 28.8535 168.6 29.9544C169.464 31.0554 170.643 31.6059 172.136 31.6059C173.864 31.6059 175.121 31.0554 175.986 29.8758C176.771 28.7748 177.243 27.202 177.243 25.1573Z" fill="black"/>
<path d="M9.80714 49.6935H7.21428C3.36428 49.6935 0.142853 46.5478 0.142853 42.6157V40.0205C0.142853 39.1555 0.849995 38.4477 1.71428 38.4477C2.57857 38.4477 3.28571 39.1555 3.28571 40.0205V42.6157C3.28571 44.8177 5.01428 46.5478 7.21428 46.5478H9.72856C10.5928 46.5478 11.3 47.2556 11.3 48.1206C11.3 48.9857 10.6714 49.6935 9.80714 49.6935Z" fill="black"/>
<path d="M42.4143 49.6935H39.8214C38.9571 49.6935 38.25 48.9857 38.25 48.1206C38.25 47.2556 38.9571 46.5478 39.8214 46.5478H42.4143C44.6143 46.5478 46.3429 44.8177 46.3429 42.6157V40.0205C46.3429 39.1555 47.05 38.4477 47.9143 38.4477C48.7786 38.4477 49.4857 39.1555 49.4857 40.0205V42.6157C49.4857 46.4691 46.3429 49.6935 42.4143 49.6935Z" fill="black"/>
<path d="M47.9143 12.26C47.05 12.26 46.3429 11.5523 46.3429 10.6872V7.38427C46.3429 5.1823 44.6143 3.45218 42.4143 3.45218H39.1929C38.3286 3.45218 37.6214 2.74441 37.6214 1.87935C37.6214 1.01429 38.3286 0.306519 39.1929 0.306519H42.4143C46.3429 0.306519 49.4857 3.45218 49.4857 7.38427V10.6872C49.4857 11.5523 48.7786 12.26 47.9143 12.26Z" fill="black"/>
<path d="M1.79286 11.5523C0.928578 11.5523 0.221436 10.8445 0.221436 9.97945V7.38427C0.221436 3.53083 3.36429 0.306519 7.29286 0.306519H9.96429C10.8286 0.306519 11.5357 1.01429 11.5357 1.87935C11.5357 2.74441 10.8286 3.45219 9.96429 3.45219H7.29286C5.09286 3.45219 3.36429 5.1823 3.36429 7.38427V9.97945C3.36429 10.8445 2.65715 11.5523 1.79286 11.5523Z" fill="black"/>
<path d="M37.7 28.3029L15.7786 8.09201C15.5429 7.85609 15.2286 7.85609 14.9143 7.93473C14.6 8.09201 14.4429 8.32794 14.4429 8.6425V38.4477C14.4429 38.7622 14.6 39.0768 14.9143 39.1555C15.2286 39.3127 15.5429 39.2341 15.7786 38.9982L21.6714 33.336L25.3643 41.672C25.4429 41.9079 25.6786 42.0652 25.9143 42.1438C25.9929 42.1438 25.9929 42.1438 26.0714 42.1438C26.3072 42.1438 26.4643 42.0652 26.6214 41.9079C28.0357 40.4137 28.9786 40.3351 30.0786 40.1778C30.7857 40.0992 31.4929 40.0205 32.2786 39.5487C32.6714 39.3914 32.75 38.9195 32.5929 38.5263L28.9 30.1117L37.0714 29.5612C37.3857 29.5612 37.7 29.3253 37.7786 29.0107C37.8572 28.6961 37.9357 28.5388 37.7 28.3029ZM25.05 27.6738C24.8929 27.9097 24.8929 28.1456 24.9714 28.3816L28.9 37.4253C28.8214 37.4253 28.7429 37.4253 28.6643 37.504C28.1929 37.5826 27.7214 37.6613 27.0929 38.1331L23.1643 29.2466C23.0857 29.0107 22.85 28.8534 22.6143 28.7748C22.5357 28.7748 22.5357 28.7748 22.4572 28.7748C22.2214 28.7748 22.0643 28.8534 21.9072 29.0107L17.4286 33.2573V13.5969L31.8857 26.8874L25.6786 27.2806C25.4429 27.2806 25.2072 27.4379 25.05 27.6738Z" fill="black"/>
</svg>
