<svg width="62" height="62" viewBox="0 0 62 62" fill="none" xmlns="http://www.w3.org/2000/svg">
<g clip-path="url(#clip0_1821_41)">
<path d="M12 57.5999H8.79999C6.09999 57.5999 3.89999 55.3999 3.89999 52.6999V49.3999C3.89999 48.2999 2.99999 47.3999 1.89999 47.3999C0.799994 47.3999 -0.100006 48.2999 -0.100006 49.3999V52.6999C-0.100006 57.5999 3.89999 61.4999 8.69999 61.4999H12C13.1 61.4999 14 60.5999 14 59.4999C14 58.3999 13.1 57.5999 12 57.5999Z" fill="#0F0F0F"/>
<path d="M59.6 47.5C58.5 47.5 57.6 48.4 57.6 49.5V52.8C57.6 55.5 55.4 57.7 52.7 57.7H49.5C48.4 57.7 47.5 58.6 47.5 59.7C47.5 60.8 48.4 61.7 49.5 61.7H52.7C57.6 61.7 61.5 57.7 61.5 52.9V49.6C61.6 48.4 60.7 47.5 59.6 47.5Z" fill="#0F0F0F"/>
<path d="M52.7 0H48.7C47.6 0 46.7 0.9 46.7 2C46.7 3.1 47.6 4 48.7 4H52.7C55.4 4 57.6 6.2 57.6 8.9V13C57.6 14.1 58.5 15 59.6 15C60.7 15 61.6 14.1 61.6 13V8.8C61.6 4 57.6 0 52.7 0Z" fill="#0F0F0F"/>
<path d="M12.1 0H8.8C4 0 0 4 0 8.8V12C0 13.1 0.9 14 2 14C3.1 14 4 13.1 4 12V8.8C4 6.1 6.2 3.9 8.9 3.9H12.2C13.3 3.9 14.2 3 14.2 1.9C14.2 0.8 13.2 0 12.1 0Z" fill="#0F0F0F"/>
<path d="M47.6 36.5001C47.7 36.1001 47.6 35.7001 47.3 35.4001L19.9 10.3001C19.6 10.0001 19.2 10.0001 18.8 10.1001C18.4 10.3001 18.2 10.6001 18.2 11.0001V48.2001C18.2 48.6001 18.4 49.0001 18.8 49.1001C19.2 49.3001 19.6 49.2001 19.9 48.9001L27.3 41.9001L31.9 52.3001C32 52.6001 32.3 52.8001 32.6 52.9001C32.7 52.9001 32.7 52.9001 32.8 52.9001C33.1 52.9001 33.3 52.8001 33.5 52.6001C35.3 50.8001 36.5 50.6001 37.8 50.5001C38.7 50.4001 39.6 50.3001 40.6 49.7001C41 49.5001 41.2 48.9001 41 48.4001L36.4 37.9001L46.6 37.2001C47.1 37.1001 47.4 36.9001 47.6 36.5001ZM31.5 34.6001C31.3 34.9001 31.3 35.2001 31.4 35.5001L36.3 46.8001C36.2 46.8001 36.1 46.8001 36 46.9001C35.4 47.0001 34.8 47.1001 34 47.7001L29.1 36.6001C29 36.2001 28.8 36.0001 28.5 36.0001C28.4 36.0001 28.4 36.0001 28.3 36.0001C28 36.0001 27.8 36.1001 27.6 36.3001L22 41.5001V17.1001L40 33.7001L32.3 34.2001C32 34.2001 31.7 34.4001 31.5 34.6001Z" fill="#0F0F0F"/>
</g>
<defs>
<clipPath id="clip0_1821_41">
<rect width="61.6" height="61.6" fill="white"/>
</clipPath>
</defs>
</svg>
