<svg width="58" height="50" viewBox="0 0 58 50" fill="none" xmlns="http://www.w3.org/2000/svg">
<path opacity="0.6" d="M0 22.1889C0.330788 21.4507 0.962293 21.0964 1.69905 20.8158C17.0957 14.925 32.4624 9.03418 47.844 3.14336C50.2197 2.24275 52.5803 1.34215 54.9409 0.412021C55.6927 0.116741 56.3693 0.131505 56.9858 0.648245C57.6023 1.16498 57.6925 1.84413 57.5271 2.61185C55.9183 10.422 54.3395 18.2321 52.7457 26.0423C51.2421 33.4095 49.7385 40.762 48.235 48.1292C47.9342 49.6056 46.6562 50.1519 45.2879 49.3989C40.5216 46.7414 35.7552 44.0691 30.9889 41.4116C30.8235 41.323 30.6581 41.2344 30.4476 41.1311C29.6507 42.1646 28.8688 43.198 28.0719 44.2167C26.869 45.7965 25.6662 47.3615 24.4483 48.9412C23.8769 49.6794 23.1702 49.9156 22.3884 49.6942C21.6215 49.4727 21.1253 48.8526 21.1253 47.9963C21.1103 46.1361 21.1103 44.2758 21.1103 42.4155C21.1103 39.0051 21.1253 35.6093 21.0953 32.1989C21.0953 31.4164 21.3659 30.8406 21.9674 30.3238C24.0874 28.5079 26.1774 26.6624 28.2824 24.8316C28.4177 24.7135 28.538 24.5954 28.6132 24.4035C28.4328 24.4921 28.2674 24.5807 28.0869 24.6692C24.4483 26.751 20.7946 28.8031 17.1709 30.9144C16.2838 31.4311 15.5019 31.4311 14.5848 30.9735C10.2544 28.7884 5.86398 26.6624 1.47351 24.5216C0.826971 24.2116 0.300717 23.8425 0 23.1781C0 22.8533 0 22.5137 0 22.1889ZM6.31505 22.868C6.45037 22.9566 6.51052 23.0009 6.5857 23.0304C9.54776 24.4773 12.5098 25.9389 15.4869 27.371C15.6824 27.4596 16.0432 27.4301 16.2387 27.312C19.0053 25.7618 21.7569 24.182 24.5084 22.617C30.6731 19.1032 36.8378 15.5746 43.0025 12.046C44.0099 11.4702 44.9271 11.6179 45.5435 12.4447C46.16 13.2714 46.0247 14.1573 45.1526 14.9398C44.6264 15.4122 44.0851 15.8699 43.5588 16.3276C37.4092 21.6721 31.2595 27.0167 25.1249 32.376C24.9294 32.5384 24.7791 32.8632 24.7791 33.1142C24.749 36.0966 24.764 39.0789 24.764 42.0612C24.764 42.1941 24.7941 42.327 24.8091 42.5632C26.012 40.9982 27.1397 39.507 28.2824 38.0306C29.1695 36.879 29.9514 36.7019 31.2294 37.4105C33.981 38.946 36.7325 40.4815 39.4691 42.0169C41.3335 43.0652 43.213 44.0986 45.1376 45.1912C47.8891 31.7412 50.6257 18.3503 53.3772 4.84121C37.6497 10.8797 22.0275 16.8591 6.31505 22.868Z" fill="black"/>
</svg>
